<svg width="92" height="19" viewBox="0 0 92 19" fill="none" xmlns="http://www.w3.org/2000/svg">
<rect x="0.117126" y="1.79224" width="5.42647" height="16.3797" rx="2.71324" fill="#FFBB11"/>
<path fill-rule="evenodd" clip-rule="evenodd" d="M0.782901 1.55785C-0.269771 2.60106 -0.258847 4.28129 0.807301 5.31073L9.08407 13.3026C9.14758 13.3836 9.21652 13.462 9.29092 13.5372C10.3332 14.5903 12.0503 14.618 13.1261 13.5991L21.6997 5.47901C22.7755 4.46011 22.8026 2.78042 21.7603 1.72731C20.7179 0.674204 19.0009 0.646472 17.9251 1.66537L11.2772 7.96157L4.61936 1.5329C3.55321 0.503459 1.83557 0.514627 0.782901 1.55785Z" fill="url(#paint0_linear_1_33)"/>
<path d="M36.8017 11.8436H40.0217V13.3638H34.8417V3.80469H36.8017V11.8436Z" fill="#D9E1F0"/>
<path d="M44.7115 13.487C43.9649 13.487 43.2929 13.3273 42.6955 13.0077C42.0982 12.679 41.6269 12.218 41.2815 11.6245C40.9455 11.0311 40.7775 10.3463 40.7775 9.57028C40.7775 8.79423 40.9502 8.10948 41.2955 7.51603C41.6502 6.92258 42.1309 6.46608 42.7375 6.14653C43.3442 5.81785 44.0209 5.65351 44.7675 5.65351C45.5142 5.65351 46.1909 5.81785 46.7975 6.14653C47.4042 6.46608 47.8802 6.92258 48.2255 7.51603C48.5802 8.10948 48.7575 8.79423 48.7575 9.57028C48.7575 10.3463 48.5755 11.0311 48.2115 11.6245C47.8569 12.218 47.3715 12.679 46.7555 13.0077C46.1489 13.3273 45.4675 13.487 44.7115 13.487ZM44.7115 11.8163C45.0662 11.8163 45.3975 11.7341 45.7055 11.5697C46.0229 11.3963 46.2749 11.1406 46.4615 10.8028C46.6482 10.465 46.7415 10.0542 46.7415 9.57028C46.7415 8.84901 46.5455 8.29664 46.1535 7.91318C45.7709 7.52059 45.2995 7.3243 44.7395 7.3243C44.1795 7.3243 43.7082 7.52059 43.3255 7.91318C42.9522 8.29664 42.7655 8.84901 42.7655 9.57028C42.7655 10.2915 42.9475 10.8485 43.3115 11.2411C43.6849 11.6245 44.1515 11.8163 44.7115 11.8163Z" fill="#D9E1F0"/>
<path d="M52.1553 6.87236C52.4073 6.52542 52.7526 6.23783 53.1913 6.00958C53.6393 5.7722 54.1479 5.65351 54.7173 5.65351C55.3799 5.65351 55.9773 5.81329 56.5093 6.13284C57.0506 6.45239 57.4753 6.90888 57.7833 7.50233C58.1006 8.08665 58.2593 8.76684 58.2593 9.54289C58.2593 10.3189 58.1006 11.0083 57.7833 11.6108C57.4753 12.2043 57.0506 12.6653 56.5093 12.994C55.9773 13.3227 55.3799 13.487 54.7173 13.487C54.1479 13.487 53.6439 13.3729 53.2053 13.1447C52.7759 12.9164 52.4259 12.6288 52.1553 12.2819V16.9793H50.1953V5.77677H52.1553V6.87236ZM56.2573 9.54289C56.2573 9.08639 56.1593 8.6938 55.9633 8.36512C55.7766 8.02731 55.5246 7.77167 55.2073 7.5982C54.8993 7.42473 54.5633 7.33799 54.1993 7.33799C53.8446 7.33799 53.5086 7.42929 53.1913 7.61189C52.8833 7.78536 52.6313 8.041 52.4353 8.37881C52.2486 8.71662 52.1553 9.11378 52.1553 9.57028C52.1553 10.0268 52.2486 10.4239 52.4353 10.7617C52.6313 11.0996 52.8833 11.3598 53.1913 11.5424C53.5086 11.7158 53.8446 11.8026 54.1993 11.8026C54.5633 11.8026 54.8993 11.7113 55.2073 11.5287C55.5246 11.3461 55.7766 11.0859 55.9633 10.748C56.1593 10.4102 56.2573 10.0085 56.2573 9.54289Z" fill="#D9E1F0"/>
<path d="M59.1795 9.54289C59.1795 8.77597 59.3335 8.09578 59.6415 7.50233C59.9589 6.90888 60.3835 6.45239 60.9155 6.13284C61.4569 5.81329 62.0589 5.65351 62.7215 5.65351C63.3002 5.65351 63.8042 5.76764 64.2335 5.99589C64.6722 6.22414 65.0222 6.51173 65.2835 6.85867V5.77677H67.2575V13.3638H65.2835V12.2545C65.0315 12.6106 64.6815 12.9073 64.2335 13.1447C63.7949 13.3729 63.2862 13.487 62.7075 13.487C62.0542 13.487 61.4569 13.3227 60.9155 12.994C60.3835 12.6653 59.9589 12.2043 59.6415 11.6108C59.3335 11.0083 59.1795 10.3189 59.1795 9.54289ZM65.2835 9.57028C65.2835 9.10465 65.1902 8.70749 65.0035 8.37881C64.8169 8.041 64.5649 7.78536 64.2475 7.61189C63.9302 7.42929 63.5895 7.33799 63.2255 7.33799C62.8615 7.33799 62.5255 7.42473 62.2175 7.5982C61.9095 7.77167 61.6575 8.02731 61.4615 8.36512C61.2749 8.6938 61.1815 9.08639 61.1815 9.54289C61.1815 9.99939 61.2749 10.4011 61.4615 10.748C61.6575 11.0859 61.9095 11.3461 62.2175 11.5287C62.5349 11.7113 62.8709 11.8026 63.2255 11.8026C63.5895 11.8026 63.9302 11.7158 64.2475 11.5424C64.5649 11.3598 64.8169 11.1041 65.0035 10.7754C65.1902 10.4376 65.2835 10.0359 65.2835 9.57028Z" fill="#D9E1F0"/>
<path d="M78.8038 5.66721C79.7558 5.66721 80.5211 5.9548 81.0998 6.52999C81.6878 7.09605 81.9818 7.89036 81.9818 8.91292V13.3638H80.0218V9.17312C80.0218 8.57967 79.8678 8.12774 79.5598 7.81732C79.2518 7.49777 78.8318 7.33799 78.2998 7.33799C77.7678 7.33799 77.3431 7.49777 77.0258 7.81732C76.7178 8.12774 76.5638 8.57967 76.5638 9.17312V13.3638H74.6038V9.17312C74.6038 8.57967 74.4498 8.12774 74.1418 7.81732C73.8338 7.49777 73.4138 7.33799 72.8818 7.33799C72.3405 7.33799 71.9111 7.49777 71.5938 7.81732C71.2858 8.12774 71.1318 8.57967 71.1318 9.17312V13.3638H69.1718V5.77677H71.1318V6.69433C71.3838 6.37478 71.7058 6.12371 72.0978 5.94111C72.4991 5.75851 72.9378 5.66721 73.4138 5.66721C74.0205 5.66721 74.5618 5.79503 75.0378 6.05067C75.5138 6.29718 75.8825 6.65324 76.1438 7.11887C76.3958 6.68064 76.7598 6.32913 77.2358 6.06436C77.7211 5.79959 78.2438 5.66721 78.8038 5.66721Z" fill="#D9E1F0"/>
<path d="M83.3377 9.54289C83.3377 8.77597 83.4917 8.09578 83.7997 7.50233C84.1171 6.90888 84.5417 6.45239 85.0737 6.13284C85.6151 5.81329 86.2171 5.65351 86.8797 5.65351C87.4584 5.65351 87.9624 5.76764 88.3917 5.99589C88.8304 6.22414 89.1804 6.51173 89.4417 6.85867V5.77677H91.4157V13.3638H89.4417V12.2545C89.1897 12.6106 88.8397 12.9073 88.3917 13.1447C87.9531 13.3729 87.4444 13.487 86.8657 13.487C86.2124 13.487 85.6151 13.3227 85.0737 12.994C84.5417 12.6653 84.1171 12.2043 83.7997 11.6108C83.4917 11.0083 83.3377 10.3189 83.3377 9.54289ZM89.4417 9.57028C89.4417 9.10465 89.3484 8.70749 89.1617 8.37881C88.9751 8.041 88.7231 7.78536 88.4057 7.61189C88.0884 7.42929 87.7477 7.33799 87.3837 7.33799C87.0197 7.33799 86.6837 7.42473 86.3757 7.5982C86.0677 7.77167 85.8157 8.02731 85.6197 8.36512C85.4331 8.6938 85.3397 9.08639 85.3397 9.54289C85.3397 9.99939 85.4331 10.4011 85.6197 10.748C85.8157 11.0859 86.0677 11.3461 86.3757 11.5287C86.6931 11.7113 87.0291 11.8026 87.3837 11.8026C87.7477 11.8026 88.0884 11.7158 88.4057 11.5424C88.7231 11.3598 88.9751 11.1041 89.1617 10.7754C89.3484 10.4376 89.4417 10.0359 89.4417 9.57028Z" fill="#D9E1F0"/>
<defs>
<linearGradient id="paint0_linear_1_33" x1="2.37672" y1="2.11435" x2="21.0807" y2="16.2028" gradientUnits="userSpaceOnUse">
<stop stop-color="#F67C08"/>
<stop offset="0.525749" stop-color="#F4A91D"/>
</linearGradient>
</defs>
</svg>
